<svg xmlns="http://www.w3.org/2000/svg" xmlns:xlink="http://www.w3.org/1999/xlink" width="1587" zoomAndPan="magnify" viewBox="0 0 1190.25 1683.749949" height="2245" preserveAspectRatio="xMidYMid meet" version="1.0"><defs><clipPath id="id1"><path d="M 357 633.042969 L 832.890625 633.042969 L 832.890625 1136.726562 L 357 1136.726562 Z M 357 633.042969 " clip-rule="nonzero"/></clipPath><clipPath id="id2"><path d="M 591 633.042969 L 832.890625 633.042969 L 832.890625 1136.726562 L 591 1136.726562 Z M 591 633.042969 " clip-rule="nonzero"/></clipPath></defs><g clip-path="url(#id1)"><path fill="#e23237" d="M 357.546875 716.535156 L 591.769531 633.039062 L 832.28125 715.050781 L 793.351562 1025.121094 L 591.769531 1136.8125 L 393.347656 1026.59375 L 357.546875 716.542969 Z M 357.546875 716.535156 " fill-opacity="1" fill-rule="nonzero"/></g><g clip-path="url(#id2)"><path fill="#b52e31" d="M 832.28125 715.050781 L 591.769531 633.039062 L 591.769531 1136.796875 L 793.355469 1025.273438 L 832.28125 715.054688 L 832.28125 715.046875 Z M 832.28125 715.050781 " fill-opacity="1" fill-rule="nonzero"/></g><path fill="#ffffff" d="M 592.140625 691.859375 L 446.191406 1016.757812 L 500.710938 1015.824219 L 530.011719 942.546875 L 660.929688 942.546875 L 693.027344 1016.757812 L 745.136719 1017.6875 L 592.140625 691.859375 L 592.140625 691.867188 Z M 592.515625 795.953125 L 641.832031 899.117188 L 549.117188 899.117188 Z M 592.515625 795.953125 " fill-opacity="1" fill-rule="nonzero"/></svg>