<svg xmlns="http://www.w3.org/2000/svg" xmlns:xlink="http://www.w3.org/1999/xlink" width="1587" zoomAndPan="magnify" viewBox="0 0 1190.25 1683.749949" height="2245" preserveAspectRatio="xMidYMid meet" version="1.0"><defs><clipPath id="id1"><path d="M 218 312.230469 L 1070.601562 312.230469 L 1070.601562 1431.273438 L 218 1431.273438 Z M 218 312.230469 " clip-rule="nonzero"/></clipPath><clipPath id="id2"><path d="M 167.421875 456 L 301 456 L 301 489 L 167.421875 489 Z M 167.421875 456 " clip-rule="nonzero"/></clipPath><clipPath id="id3"><path d="M 167.421875 589 L 301 589 L 301 1288 L 167.421875 1288 Z M 167.421875 589 " clip-rule="nonzero"/></clipPath></defs><g clip-path="url(#id1)"><path fill="#000000" d="M 302.808594 312.234375 L 370.777344 312.234375 L 370.777344 1431.265625 L 302.808594 1431.265625 C 256.234375 1431.265625 218.128906 1393.160156 218.128906 1346.585938 L 218.128906 396.914062 C 218.128906 350.339844 256.234375 312.234375 302.808594 312.234375 Z M 725.878906 631.878906 C 858.355469 631.878906 965.746094 739.273438 965.746094 871.75 C 965.746094 1004.226562 858.355469 1111.621094 725.878906 1111.621094 C 593.40625 1111.621094 486.015625 1004.226562 486.015625 871.75 C 486.015625 739.273438 593.40625 631.878906 725.878906 631.878906 Z M 294.453125 1234.28125 C 314.714844 1234.28125 331.140625 1250.707031 331.140625 1270.96875 C 331.140625 1291.230469 314.714844 1307.65625 294.453125 1307.65625 C 274.195312 1307.65625 257.769531 1291.230469 257.769531 1270.96875 C 257.769531 1250.707031 274.195312 1234.28125 294.453125 1234.28125 Z M 294.453125 1101.207031 C 314.714844 1101.207031 331.140625 1117.632812 331.140625 1137.894531 C 331.140625 1158.15625 314.714844 1174.582031 294.453125 1174.582031 C 274.195312 1174.582031 257.769531 1158.15625 257.769531 1137.894531 C 257.769531 1117.632812 274.195312 1101.207031 294.453125 1101.207031 Z M 294.453125 968.136719 C 314.714844 968.136719 331.140625 984.5625 331.140625 1004.824219 C 331.140625 1025.085938 314.714844 1041.507812 294.453125 1041.507812 C 274.195312 1041.507812 257.769531 1025.085938 257.769531 1004.824219 C 257.769531 984.5625 274.195312 968.136719 294.453125 968.136719 Z M 294.453125 835.0625 C 314.714844 835.0625 331.140625 851.488281 331.140625 871.75 C 331.140625 892.011719 314.714844 908.4375 294.453125 908.4375 C 274.195312 908.4375 257.769531 892.011719 257.769531 871.75 C 257.769531 851.488281 274.195312 835.0625 294.453125 835.0625 Z M 294.453125 701.992188 C 314.714844 701.992188 331.140625 718.417969 331.140625 738.679688 C 331.140625 758.9375 314.714844 775.363281 294.453125 775.363281 C 274.195312 775.363281 257.769531 758.9375 257.769531 738.679688 C 257.769531 718.417969 274.195312 701.992188 294.453125 701.992188 Z M 294.453125 568.917969 C 314.714844 568.917969 331.140625 585.34375 331.140625 605.605469 C 331.140625 625.867188 314.714844 642.292969 294.453125 642.292969 C 274.195312 642.292969 257.769531 625.867188 257.769531 605.605469 C 257.769531 585.34375 274.195312 568.917969 294.453125 568.917969 Z M 294.453125 435.84375 C 314.714844 435.84375 331.140625 452.269531 331.140625 472.53125 C 331.140625 492.792969 314.714844 509.21875 294.453125 509.21875 C 274.195312 509.21875 257.769531 492.792969 257.769531 472.53125 C 257.769531 452.269531 274.195312 435.84375 294.453125 435.84375 Z M 390.761719 312.234375 L 1070.992188 312.234375 L 1070.992188 1431.265625 L 390.761719 1431.265625 Z M 390.761719 312.234375 " fill-opacity="1" fill-rule="evenodd"/></g><g clip-path="url(#id2)"><path fill="#000000" d="M 167.152344 456.324219 L 300.671875 456.324219 L 300.671875 488.738281 L 167.152344 488.738281 Z M 167.152344 456.324219 " fill-opacity="1" fill-rule="evenodd"/></g><g clip-path="url(#id3)"><path fill="#000000" d="M 300.671875 621.8125 L 167.152344 621.8125 L 167.152344 589.398438 L 300.671875 589.398438 Z M 300.671875 754.886719 L 167.152344 754.886719 L 167.152344 722.46875 L 300.671875 722.46875 Z M 300.671875 887.957031 L 167.152344 887.957031 L 167.152344 855.542969 L 300.671875 855.542969 Z M 300.671875 1021.03125 L 167.152344 1021.03125 L 167.152344 988.617188 L 300.671875 988.617188 Z M 300.671875 1154.105469 L 167.152344 1154.105469 L 167.152344 1121.6875 L 300.671875 1121.6875 Z M 300.671875 1287.179688 L 167.152344 1287.179688 L 167.152344 1254.761719 L 300.671875 1254.761719 Z M 300.671875 1287.179688 " fill-opacity="1" fill-rule="evenodd"/></g><path fill="#000000" d="M 787.34375 777.953125 C 787.34375 779.964844 787.246094 781.972656 787.050781 783.972656 C 786.851562 785.972656 786.558594 787.960938 786.164062 789.933594 C 785.773438 791.90625 785.285156 793.855469 784.703125 795.78125 C 784.117188 797.703125 783.441406 799.59375 782.671875 801.453125 C 781.902344 803.3125 781.042969 805.128906 780.09375 806.902344 C 779.148438 808.675781 778.113281 810.398438 776.996094 812.070312 C 775.878906 813.742188 774.683594 815.355469 773.40625 816.910156 C 772.132812 818.464844 770.78125 819.953125 769.359375 821.375 C 767.9375 822.796875 766.449219 824.148438 764.894531 825.421875 C 763.339844 826.699219 761.726562 827.894531 760.054688 829.011719 C 758.382812 830.128906 756.660156 831.164062 754.886719 832.109375 C 753.113281 833.058594 751.296875 833.917969 749.4375 834.6875 C 747.582031 835.457031 745.6875 836.132812 743.765625 836.71875 C 741.839844 837.300781 739.890625 837.789062 737.917969 838.183594 C 735.945312 838.574219 733.960938 838.867188 731.957031 839.066406 C 729.957031 839.261719 727.949219 839.363281 725.9375 839.363281 C 723.929688 839.363281 721.921875 839.261719 719.921875 839.066406 C 717.917969 838.867188 715.933594 838.574219 713.960938 838.183594 C 711.988281 837.789062 710.039062 837.300781 708.113281 836.71875 C 706.1875 836.132812 704.296875 835.457031 702.441406 834.6875 C 700.582031 833.917969 698.765625 833.058594 696.992188 832.109375 C 695.21875 831.164062 693.496094 830.128906 691.824219 829.011719 C 690.152344 827.894531 688.539062 826.699219 686.984375 825.421875 C 685.429688 824.148438 683.941406 822.796875 682.519531 821.375 C 681.097656 819.953125 679.746094 818.464844 678.472656 816.910156 C 677.195312 815.355469 676 813.742188 674.882812 812.070312 C 673.765625 810.398438 672.730469 808.675781 671.785156 806.902344 C 670.835938 805.128906 669.976562 803.3125 669.207031 801.453125 C 668.4375 799.59375 667.761719 797.703125 667.175781 795.78125 C 666.59375 793.855469 666.105469 791.90625 665.710938 789.933594 C 665.320312 787.960938 665.023438 785.972656 664.828125 783.972656 C 664.632812 781.972656 664.53125 779.964844 664.53125 777.953125 C 664.53125 775.941406 664.632812 773.9375 664.828125 771.933594 C 665.023438 769.933594 665.320312 767.945312 665.710938 765.972656 C 666.105469 764 666.59375 762.050781 667.175781 760.128906 C 667.761719 758.203125 668.4375 756.3125 669.207031 754.453125 C 669.976562 752.59375 670.835938 750.78125 671.785156 749.007812 C 672.730469 747.230469 673.765625 745.507812 674.882812 743.835938 C 676 742.164062 677.195312 740.550781 678.472656 738.996094 C 679.746094 737.441406 681.097656 735.953125 682.519531 734.53125 C 683.941406 733.109375 685.429688 731.761719 686.984375 730.484375 C 688.539062 729.207031 690.152344 728.011719 691.824219 726.894531 C 693.496094 725.777344 695.21875 724.746094 696.992188 723.796875 C 698.765625 722.847656 700.582031 721.988281 702.441406 721.21875 C 704.296875 720.449219 706.1875 719.773438 708.113281 719.191406 C 710.039062 718.605469 711.988281 718.117188 713.960938 717.726562 C 715.933594 717.332031 717.917969 717.039062 719.921875 716.839844 C 721.921875 716.644531 723.929688 716.546875 725.9375 716.546875 C 727.949219 716.546875 729.957031 716.644531 731.957031 716.839844 C 733.960938 717.039062 735.945312 717.332031 737.917969 717.726562 C 739.890625 718.117188 741.839844 718.605469 743.765625 719.191406 C 745.6875 719.773438 747.582031 720.449219 749.4375 721.21875 C 751.296875 721.988281 753.113281 722.847656 754.886719 723.796875 C 756.660156 724.746094 758.382812 725.777344 760.054688 726.894531 C 761.726562 728.011719 763.339844 729.207031 764.894531 730.484375 C 766.449219 731.761719 767.9375 733.109375 769.359375 734.53125 C 770.78125 735.953125 772.132812 737.441406 773.40625 738.996094 C 774.683594 740.550781 775.878906 742.164062 776.996094 743.835938 C 778.113281 745.507812 779.148438 747.230469 780.09375 749.007812 C 781.042969 750.78125 781.902344 752.59375 782.671875 754.453125 C 783.441406 756.3125 784.117188 758.203125 784.703125 760.128906 C 785.285156 762.050781 785.773438 764 786.164062 765.972656 C 786.558594 767.945312 786.851562 769.933594 787.050781 771.933594 C 787.246094 773.9375 787.34375 775.941406 787.34375 777.953125 Z M 787.34375 777.953125 " fill-opacity="1" fill-rule="nonzero"/><path fill="#000000" d="M 600.828125 1026.957031 L 850.933594 1026.957031 L 850.933594 948.140625 C 850.933594 904.792969 815.46875 869.324219 772.117188 869.324219 L 679.640625 869.324219 C 636.292969 869.324219 600.828125 904.792969 600.828125 948.140625 Z M 600.828125 1026.957031 " fill-opacity="1" fill-rule="evenodd"/></svg>