<svg xmlns="http://www.w3.org/2000/svg" xmlns:xlink="http://www.w3.org/1999/xlink" width="1587" zoomAndPan="magnify" viewBox="0 0 1190.25 1683.749949" height="2245" preserveAspectRatio="xMidYMid meet" version="1.0"><defs><clipPath id="id1"><path d="M 356.941406 571 L 832.890625 571 L 832.890625 1113 L 356.941406 1113 Z M 356.941406 571 " clip-rule="nonzero"/></clipPath></defs><g clip-path="url(#id1)"><path fill="#e44d26" d="M 400.148438 1058.128906 L 356.804688 571.757812 L 833.027344 571.757812 L 789.648438 1058.0625 L 594.613281 1112.132812 Z M 400.148438 1058.128906 " fill-opacity="1" fill-rule="nonzero"/></g><path fill="#f16529" d="M 752.503906 1027.089844 L 789.582031 611.527344 L 594.914062 611.527344 L 594.914062 1070.8125 Z M 752.503906 1027.089844 " fill-opacity="1" fill-rule="nonzero"/><path fill="#ebebeb" d="M 594.714844 671.171875 L 445.414062 671.171875 L 461.496094 851.5625 L 594.914062 851.5625 L 594.914062 791.917969 L 516.027344 791.917969 L 510.578125 730.835938 L 594.914062 730.835938 L 594.914062 671.171875 Z M 594.914062 946.636719 L 594.664062 946.707031 L 528.265625 928.773438 L 524.046875 881.199219 L 464.164062 881.199219 L 472.519531 974.855469 L 594.644531 1008.632812 L 594.914062 1008.546875 Z M 594.914062 946.636719 " fill-opacity="1" fill-rule="nonzero"/><path fill="#ffffff" d="M 594.714844 851.5625 L 668.128906 851.5625 L 661.378906 928.90625 L 594.882812 946.859375 L 594.882812 1008.917969 L 717.109375 975.027344 L 733.480469 791.882812 L 594.914062 791.882812 Z M 742.628906 687.179688 L 744.046875 671.171875 L 594.679688 671.171875 L 594.679688 730.820312 L 738.679688 730.820312 L 739.859375 717.410156 Z M 742.628906 687.179688 " fill-opacity="1" fill-rule="nonzero"/></svg>