<svg xmlns="http://www.w3.org/2000/svg" xmlns:xlink="http://www.w3.org/1999/xlink" width="1587" zoomAndPan="magnify" viewBox="0 0 1190.25 1683.749949" height="2245" preserveAspectRatio="xMidYMid meet" version="1.0"><defs><clipPath id="id1"><path d="M 356.941406 603.804688 L 832.890625 603.804688 L 832.890625 1079.753906 L 356.941406 1079.753906 Z M 356.941406 603.804688 " clip-rule="nonzero"/></clipPath></defs><g clip-path="url(#id1)"><path fill="#ffd600" d="M 356.941406 603.804688 L 832.890625 603.804688 L 832.890625 1079.753906 L 356.941406 1079.753906 Z M 356.941406 603.804688 " fill-opacity="1" fill-rule="nonzero"/></g><path fill="#000001" d="M 668.132812 960.066406 C 677.28125 974.925781 687.222656 989.164062 708.285156 989.164062 C 725.972656 989.164062 735.253906 980.375 735.253906 968.210938 C 735.253906 953.652344 725.65625 948.484375 706.195312 940.011719 L 695.527344 935.460938 C 664.734375 922.398438 644.253906 906.03125 644.253906 871.460938 C 644.253906 839.597656 668.648438 815.351562 706.765625 815.351562 C 733.90625 815.351562 753.40625 824.75 767.472656 849.367188 L 734.238281 870.613281 C 726.925781 857.550781 719.019531 852.410156 706.765625 852.410156 C 694.257812 852.410156 686.335938 860.300781 686.335938 870.613281 C 686.335938 883.359375 694.269531 888.515625 712.582031 896.40625 L 723.25 900.957031 C 759.542969 916.410156 780.007812 932.195312 780.007812 967.679688 C 780.007812 1005.917969 749.8125 1026.871094 709.277344 1026.871094 C 669.625 1026.871094 647.113281 1006.972656 634.578125 982.34375 Z M 514.957031 961.152344 C 521.644531 973.128906 531.8125 982.34375 546.433594 982.34375 C 560.421875 982.34375 568.472656 976.816406 568.472656 955.332031 L 568.472656 815.335938 L 612.539062 815.335938 L 612.539062 962.101562 C 612.539062 1006.617188 586.71875 1026.871094 549.011719 1026.871094 C 514.941406 1026.871094 490.351562 1003.789062 480.332031 982.34375 Z M 514.957031 961.152344 " fill-opacity="1" fill-rule="nonzero"/></svg>