<svg xmlns="http://www.w3.org/2000/svg" xmlns:xlink="http://www.w3.org/1999/xlink" width="1587" zoomAndPan="magnify" viewBox="0 0 1190.25 1683.749949" height="2245" preserveAspectRatio="xMidYMid meet" version="1.0"><path fill="#8899a6" d="M 562.207031 740.273438 L 629.878906 672.601562 C 629.878906 672.601562 697.550781 604.933594 765.21875 672.601562 C 832.890625 740.273438 765.21875 807.945312 765.21875 807.945312 L 674.992188 898.171875 C 674.992188 898.171875 607.320312 965.84375 539.652344 898.171875 C 526.960938 885.484375 519.101562 868.621094 519.101562 868.621094 L 556.917969 830.863281 C 556.917969 830.863281 555.394531 846.246094 573.488281 864.335938 C 573.488281 864.335938 607.320312 898.171875 641.15625 864.335938 L 731.382812 774.109375 C 731.382812 774.109375 765.21875 740.273438 731.382812 706.4375 C 697.550781 672.601562 663.714844 706.4375 663.714844 706.4375 L 621.65625 748.496094 C 621.65625 748.496094 600.746094 731.339844 557.980469 744.503906 Z M 562.207031 740.273438 " fill-opacity="1" fill-rule="nonzero"/><path fill="#8899a6" d="M 628.128906 943.285156 L 560.460938 1010.957031 C 560.460938 1010.957031 492.789062 1078.625 425.117188 1010.957031 C 357.449219 943.285156 425.117188 875.613281 425.117188 875.613281 L 515.347656 785.386719 C 515.347656 785.386719 583.015625 717.714844 650.6875 785.386719 C 663.375 798.074219 671.238281 814.9375 671.238281 814.9375 L 633.410156 852.707031 C 633.410156 852.707031 634.929688 837.3125 616.839844 819.222656 C 616.839844 819.222656 583.003906 785.386719 549.171875 819.222656 L 458.941406 909.449219 C 458.941406 909.449219 425.105469 943.285156 458.941406 977.121094 C 492.777344 1010.957031 526.613281 977.121094 526.613281 977.121094 L 568.671875 935.0625 C 568.671875 935.0625 589.582031 952.21875 632.347656 939.054688 Z M 628.128906 943.285156 " fill-opacity="1" fill-rule="nonzero"/></svg>