<svg xmlns="http://www.w3.org/2000/svg" xmlns:xlink="http://www.w3.org/1999/xlink" width="1587" zoomAndPan="magnify" viewBox="0 0 1190.25 1683.749949" height="2245" preserveAspectRatio="xMidYMid meet" version="1.0"><defs><clipPath id="id1"><path d="M 357 630 L 832.890625 630 L 832.890625 1054 L 357 1054 Z M 357 630 " clip-rule="nonzero"/></clipPath></defs><g clip-path="url(#id1)"><path fill="#00d8ff" d="M 747.949219 767.503906 C 743.03125 765.808594 737.929688 764.203125 732.660156 762.683594 C 733.53125 759.15625 734.332031 755.671875 735.035156 752.25 C 746.59375 696.035156 739.042969 650.746094 713.199219 635.835938 C 688.410156 621.539062 647.886719 636.445312 606.957031 672.082031 C 603.023438 675.511719 599.070312 679.136719 595.136719 682.941406 C 592.503906 680.425781 589.886719 677.996094 587.269531 675.667969 C 544.375 637.5625 501.378906 621.503906 475.5625 636.457031 C 450.804688 650.796875 443.476562 693.371094 453.894531 746.644531 C 454.902344 751.792969 456.078125 757.046875 457.40625 762.390625 C 451.320312 764.117188 445.449219 765.960938 439.828125 767.921875 C 389.539062 785.460938 357.421875 812.957031 357.421875 841.476562 C 357.421875 870.921875 391.902344 900.476562 444.277344 918.390625 C 448.410156 919.800781 452.699219 921.136719 457.121094 922.398438 C 455.6875 928.175781 454.4375 933.835938 453.390625 939.367188 C 443.457031 991.71875 451.214844 1033.285156 475.902344 1047.523438 C 501.40625 1062.246094 544.207031 1047.117188 585.878906 1010.675781 C 589.183594 1007.796875 592.484375 1004.734375 595.789062 1001.539062 C 600.09375 1005.664062 604.378906 1009.578125 608.625 1013.253906 C 649 1048.007812 688.875 1062.042969 713.53125 1047.765625 C 739.007812 1033.007812 747.300781 988.339844 736.539062 934.023438 C 735.722656 929.863281 734.757812 925.628906 733.699219 921.324219 C 736.707031 920.433594 739.65625 919.503906 742.53125 918.558594 C 796.988281 900.496094 832.40625 871.328125 832.40625 841.476562 C 832.40625 812.851562 799.25 785.175781 747.949219 767.503906 Z M 736.148438 899.289062 C 733.550781 900.140625 730.878906 900.976562 728.171875 901.773438 C 722.160156 882.746094 714.050781 862.492188 704.105469 841.570312 C 713.585938 821.148438 721.378906 801.164062 727.222656 782.246094 C 732.085938 783.652344 736.796875 785.136719 741.34375 786.699219 C 785.296875 801.84375 812.109375 824.230469 812.109375 841.476562 C 812.109375 859.835938 783.164062 883.691406 736.148438 899.289062 Z M 716.628906 937.957031 C 721.398438 961.980469 722.066406 983.699219 718.914062 1000.6875 C 716.09375 1015.945312 710.394531 1026.121094 703.363281 1030.1875 C 688.390625 1038.855469 656.386719 1027.585938 621.875 997.863281 C 617.902344 994.449219 613.914062 990.8125 609.925781 986.96875 C 623.304688 972.320312 636.679688 955.296875 649.742188 936.378906 C 672.695312 934.355469 694.382812 931.015625 714.070312 926.464844 C 715.035156 930.382812 715.886719 934.207031 716.628906 937.957031 Z M 519.363281 1028.683594 C 504.738281 1033.863281 493.089844 1034.011719 486.050781 1029.945312 C 471.066406 1021.292969 464.839844 987.914062 473.335938 943.15625 C 474.308594 938.03125 475.464844 932.757812 476.800781 927.375 C 496.257812 931.683594 517.792969 934.78125 540.808594 936.640625 C 553.957031 955.148438 567.722656 972.152344 581.582031 987.042969 C 578.558594 989.976562 575.535156 992.761719 572.527344 995.378906 C 554.105469 1011.511719 535.640625 1022.945312 519.363281 1028.683594 Z M 450.847656 899.175781 C 427.6875 891.25 408.558594 880.964844 395.449219 869.714844 C 383.667969 859.632812 377.722656 849.609375 377.722656 841.476562 C 377.722656 824.175781 403.507812 802.09375 446.511719 787.09375 C 451.730469 785.273438 457.195312 783.554688 462.863281 781.945312 C 468.808594 801.289062 476.605469 821.519531 486.011719 841.960938 C 476.480469 862.714844 468.574219 883.265625 462.570312 902.851562 C 458.53125 901.683594 454.613281 900.457031 450.847656 899.175781 Z M 473.816406 742.746094 C 464.886719 697.101562 470.816406 662.667969 485.734375 654.027344 C 501.625 644.824219 536.761719 657.945312 573.789062 690.851562 C 576.164062 692.953125 578.539062 695.152344 580.933594 697.429688 C 567.128906 712.257812 553.492188 729.136719 540.464844 747.535156 C 518.125 749.605469 496.742188 752.933594 477.082031 757.390625 C 475.84375 752.414062 474.75 747.527344 473.816406 742.746094 Z M 678.6875 793.367188 C 673.996094 785.246094 669.171875 777.316406 664.253906 769.597656 C 679.414062 771.515625 693.921875 774.0625 707.558594 777.175781 C 703.476562 790.300781 698.375 804.027344 692.363281 818.105469 C 688.058594 809.914062 683.496094 801.664062 678.6875 793.367188 Z M 595.140625 711.941406 C 604.507812 722.085938 613.878906 733.414062 623.101562 745.703125 C 613.804688 745.265625 604.398438 745.035156 594.917969 745.035156 C 585.527344 745.035156 576.195312 745.257812 566.957031 745.691406 C 576.175781 733.515625 585.640625 722.203125 595.140625 711.941406 Z M 511.054688 793.507812 C 506.363281 801.652344 501.890625 809.859375 497.648438 818.085938 C 491.738281 804.0625 486.683594 790.273438 482.554688 776.960938 C 496.109375 773.925781 510.558594 771.445312 525.617188 769.5625 C 520.628906 777.351562 515.765625 785.339844 511.054688 793.507812 Z M 526.050781 914.824219 C 510.492188 913.097656 495.824219 910.742188 482.277344 907.789062 C 486.46875 894.238281 491.636719 880.167969 497.671875 865.835938 C 501.921875 874.058594 506.414062 882.265625 511.136719 890.433594 C 515.949219 898.75 520.933594 906.878906 526.050781 914.824219 Z M 595.695312 972.433594 C 586.085938 962.054688 576.492188 950.5625 567.125 938.21875 C 576.214844 938.570312 585.492188 938.753906 594.917969 938.753906 C 604.601562 938.753906 614.175781 938.53125 623.582031 938.125 C 614.34375 950.691406 604.992188 962.203125 595.695312 972.433594 Z M 692.550781 865.109375 C 698.894531 879.589844 704.257812 893.589844 708.503906 906.917969 C 694.738281 910.054688 679.859375 912.578125 664.199219 914.472656 C 669.132812 906.65625 673.996094 898.582031 678.78125 890.285156 C 683.625 881.890625 688.207031 873.484375 692.550781 865.109375 Z M 661.191406 880.148438 C 653.769531 893.03125 646.144531 905.320312 638.40625 916.925781 C 624.324219 917.925781 609.761719 918.445312 594.917969 918.445312 C 580.128906 918.445312 565.75 918 551.910156 917.089844 C 543.855469 905.339844 536.074219 893.011719 528.695312 880.257812 L 528.699219 880.257812 C 521.339844 867.542969 514.566406 854.714844 508.429688 841.960938 C 514.566406 829.1875 521.320312 816.339844 528.636719 803.648438 L 528.632812 803.652344 C 535.96875 790.925781 543.691406 778.652344 551.667969 766.964844 C 565.789062 765.894531 580.277344 765.339844 594.917969 765.339844 C 609.628906 765.339844 624.121094 765.902344 638.242188 766.976562 C 646.109375 778.578125 653.769531 790.8125 661.136719 803.539062 C 668.578125 816.414062 675.421875 829.167969 681.601562 841.683594 C 675.441406 854.398438 668.613281 867.28125 661.191406 880.148438 Z M 703.050781 653.417969 C 718.96875 662.597656 725.148438 699.609375 715.148438 748.144531 C 714.515625 751.242188 713.792969 754.398438 713.015625 757.59375 C 693.308594 753.042969 671.917969 749.660156 649.523438 747.554688 C 636.460938 728.960938 622.933594 712.054688 609.351562 697.417969 C 613.007812 693.902344 616.664062 690.554688 620.28125 687.390625 C 655.347656 656.859375 688.132812 644.804688 703.050781 653.417969 Z M 594.917969 799.03125 C 618.332031 799.03125 637.332031 818.023438 637.332031 841.472656 C 637.332031 864.902344 618.332031 883.910156 594.917969 883.910156 C 571.503906 883.910156 552.503906 864.902344 552.503906 841.472656 C 552.503906 818.023438 571.503906 799.03125 594.917969 799.03125 Z M 594.917969 799.03125 " fill-opacity="1" fill-rule="nonzero"/></g></svg>