<svg xmlns="http://www.w3.org/2000/svg" xmlns:xlink="http://www.w3.org/1999/xlink" width="1587" zoomAndPan="magnify" viewBox="0 0 1190.25 1683.749949" height="2245" preserveAspectRatio="xMidYMid meet" version="1.0"><defs><clipPath id="id1"><path d="M 356.941406 543.207031 L 832.890625 543.207031 L 832.890625 1019.15625 L 356.941406 1019.15625 Z M 356.941406 543.207031 " clip-rule="nonzero"/></clipPath></defs><g clip-path="url(#id1)"><path fill="#007acc" d="M 356.941406 1019.15625 L 832.890625 1019.15625 L 832.890625 543.207031 L 356.941406 543.207031 Z M 356.941406 1019.15625 " fill-opacity="1" fill-rule="nonzero"/></g><path fill="#ffffff" d="M 462.171875 782.742188 L 462.019531 802.246094 L 523.96875 802.246094 L 523.96875 978.273438 L 567.789062 978.273438 L 567.789062 802.246094 L 629.738281 802.246094 L 629.738281 783.132812 C 629.738281 772.554688 629.511719 763.707031 629.210938 763.484375 C 628.984375 763.183594 591.285156 763.035156 545.574219 763.109375 L 462.394531 763.332031 Z M 462.171875 782.742188 " fill-opacity="1" fill-rule="nonzero"/><path fill="#ffffff" d="M 740.992188 762.792969 C 753.074219 765.804688 762.296875 771.179688 770.757812 779.9375 C 775.125 784.621094 781.632812 793.15625 782.152344 795.199219 C 782.300781 795.8125 761.609375 809.703125 749.058594 817.492188 C 748.613281 817.789062 746.808594 815.820312 744.765625 812.804688 C 738.648438 803.882812 732.214844 800.035156 722.398438 799.363281 C 707.972656 798.378906 698.675781 805.925781 698.75 818.550781 C 698.75 822.25 699.289062 824.445312 700.796875 827.457031 C 703.976562 834.039062 709.867188 837.960938 728.367188 845.972656 C 762.445312 860.625 777.023438 870.292969 786.09375 884.050781 C 796.207031 899.386719 798.476562 923.855469 791.597656 942.058594 C 784.050781 961.855469 765.308594 975.300781 738.945312 979.761719 C 730.785156 981.191406 711.449219 980.96875 702.671875 979.390625 C 683.5625 975.988281 665.433594 966.542969 654.261719 954.160156 C 649.871094 949.324219 641.339844 936.703125 641.859375 935.792969 C 642.101562 935.492188 644.054688 934.285156 646.246094 933.003906 C 648.367188 931.792969 656.378906 927.183594 663.929688 922.796875 L 677.59375 914.875 L 680.476562 919.097656 C 684.472656 925.210938 693.246094 933.597656 698.527344 936.40625 C 713.71875 944.398438 734.558594 943.265625 744.839844 934.0625 C 749.226562 930.046875 751.03125 925.902344 751.03125 919.785156 C 751.03125 914.261719 750.363281 911.84375 747.480469 907.699219 C 743.78125 902.402344 736.230469 897.9375 714.777344 888.660156 C 690.21875 878.082031 679.636719 871.5 669.96875 861.070312 C 664.375 855.027344 659.09375 845.359375 656.902344 837.273438 C 655.078125 830.5625 654.632812 813.71875 656.0625 806.914062 C 661.140625 783.191406 679.042969 766.644531 704.867188 761.734375 C 713.253906 760.15625 732.753906 760.75 740.992188 762.792969 Z M 740.992188 762.792969 " fill-opacity="1" fill-rule="nonzero"/></svg>